<svg width="900" height="273" viewBox="0 0 900 273" fill="none" xmlns="http://www.w3.org/2000/svg">
<path d="M0 29L18.8 28.3C37.7 27.7 75.3 26.3 112.8 30.7C150.3 35 187.7 45 225.2 47.3C262.7 49.7 300.3 44.3 337.8 37.7C375.3 31 412.7 23 450.2 24.8C487.7 26.7 525.3 38.3 562.8 48.7C600.3 59 637.7 68 675.2 65C712.7 62 750.3 47 787.8 40.3C825.3 33.7 862.7 35.3 881.3 36.2L900 37V161H881.3C862.7 161 825.3 161 787.8 161C750.3 161 712.7 161 675.2 161C637.7 161 600.3 161 562.8 161C525.3 161 487.7 161 450.2 161C412.7 161 375.3 161 337.8 161C300.3 161 262.7 161 225.2 161C187.7 161 150.3 161 112.8 161C75.3 161 37.7 161 18.8 161H0V29Z" fill="#AD92F5"/>
<path d="M900 244L881.2 244.7C862.3 245.3 824.7 246.7 787.2 242.3C749.7 238 712.3 228 674.8 225.7C637.3 223.3 599.7 228.7 562.2 235.3C524.7 242 487.3 250 449.8 248.2C412.3 246.3 374.7 234.7 337.2 224.3C299.7 214 262.3 205 224.8 208C187.3 211 149.7 226 112.2 232.7C74.7 239.3 37.3 237.7 18.7 236.8L1.08905e-06 236L1.19295e-05 112L18.7 112C37.3 112 74.7 112 112.2 112C149.7 112 187.3 112 224.8 112C262.3 112 299.7 112 337.2 112C374.7 112 412.3 112 449.8 112C487.3 112 524.7 112 562.2 112C599.7 112 637.3 112 674.8 112C712.3 112 749.7 112 787.2 112C824.7 112 862.3 112 881.2 112L900 112L900 244Z" fill="#AD92F5"/>
<g filter="url(#filter0_b_78_18)">
<path d="M900 268L881.2 268.7C862.3 269.3 824.7 270.7 787.2 266.3C749.7 262 712.3 252 674.8 249.7C637.3 247.3 599.7 252.7 562.2 259.3C524.7 266 487.3 274 449.8 272.2C412.3 270.3 374.7 258.7 337.2 248.3C299.7 238 262.3 229 224.8 232C187.3 235 149.7 250 112.2 256.7C74.7 263.3 37.3 261.7 18.7 260.8L1.08905e-06 260L1.19295e-05 136L18.7 136C37.3 136 74.7 136 112.2 136C149.7 136 187.3 136 224.8 136C262.3 136 299.7 136 337.2 136C374.7 136 412.3 136 449.8 136C487.3 136 524.7 136 562.2 136C599.7 136 637.3 136 674.8 136C712.3 136 749.7 136 787.2 136C824.7 136 862.3 136 881.2 136L900 136L900 268Z" fill="#AD92F5" fill-opacity="0.3"/>
</g>
<path d="M0 81L18.8 81.2C37.7 81.3 75.3 81.7 112.8 79.5C150.3 77.3 187.7 72.7 225.2 77C262.7 81.3 300.3 94.7 337.8 100C375.3 105.3 412.7 102.7 450.2 99.3C487.7 96 525.3 92 562.8 91.5C600.3 91 637.7 94 675.2 89.2C712.7 84.3 750.3 71.7 787.8 64.2C825.3 56.7 862.7 54.3 881.3 53.2L900 52V161H881.3C862.7 161 825.3 161 787.8 161C750.3 161 712.7 161 675.2 161C637.7 161 600.3 161 562.8 161C525.3 161 487.7 161 450.2 161C412.7 161 375.3 161 337.8 161C300.3 161 262.7 161 225.2 161C187.7 161 150.3 161 112.8 161C75.3 161 37.7 161 18.8 161H0V81Z" fill="#684BAD"/>
<path d="M900 192L881.2 191.8C862.3 191.7 824.7 191.3 787.2 193.5C749.7 195.7 712.3 200.3 674.8 196C637.3 191.7 599.7 178.3 562.2 173C524.7 167.7 487.3 170.3 449.8 173.7C412.3 177 374.7 181 337.2 181.5C299.7 182 262.3 179 224.8 183.8C187.3 188.7 149.7 201.3 112.2 208.8C74.7 216.3 37.3 218.7 18.7 219.8L0 221L9.52908e-06 112L18.7 112C37.3 112 74.7 112 112.2 112C149.7 112 187.3 112 224.8 112C262.3 112 299.7 112 337.2 112C374.7 112 412.3 112 449.8 112C487.3 112 524.7 112 562.2 112C599.7 112 637.3 112 674.8 112C712.3 112 749.7 112 787.2 112C824.7 112 862.3 112 881.2 112L900 112L900 192Z" fill="#684BAD"/>
<g filter="url(#filter1_b_78_18)">
<path d="M0 4.45732L18.8 3.75731C37.7 3.15731 75.3 1.75733 112.8 6.15733C150.3 10.4573 187.7 20.4573 225.2 22.7573C262.7 25.1573 300.3 19.7573 337.8 13.1573C375.3 6.45733 412.7 -1.54269 450.2 0.257306C487.7 2.15731 525.3 13.7573 562.8 24.1573C600.3 34.4573 637.7 43.4573 675.2 40.4573C712.7 37.4573 750.3 22.4573 787.8 15.7573C825.3 9.15731 862.7 10.7573 881.3 11.6573L900 12.4573V136.457H881.3C862.7 136.457 825.3 136.457 787.8 136.457C750.3 136.457 712.7 136.457 675.2 136.457C637.7 136.457 600.3 136.457 562.8 136.457C525.3 136.457 487.7 136.457 450.2 136.457C412.7 136.457 375.3 136.457 337.8 136.457C300.3 136.457 262.7 136.457 225.2 136.457C187.7 136.457 150.3 136.457 112.8 136.457C75.3 136.457 37.7 136.457 18.8 136.457H0V4.45732Z" fill="#AD92F5" fill-opacity="0.3"/>
</g>
<path d="M0 87L18.8 87.2C37.7 87.3 75.3 87.7 112.8 85.5C150.3 83.3 187.7 78.7 225.2 83C262.7 87.3 300.3 100.7 337.8 106C375.3 111.3 412.7 108.7 450.2 105.3C487.7 102 525.3 98 562.8 97.5C600.3 97 637.7 100 675.2 95.2C712.7 90.3 750.3 77.7 787.8 70.2C825.3 62.7 862.7 60.3 881.3 59.2L900 58V167H881.3C862.7 167 825.3 167 787.8 167C750.3 167 712.7 167 675.2 167C637.7 167 600.3 167 562.8 167C525.3 167 487.7 167 450.2 167C412.7 167 375.3 167 337.8 167C300.3 167 262.7 167 225.2 167C187.7 167 150.3 167 112.8 167C75.3 167 37.7 167 18.8 167H0L0 87Z" fill="#684BAD"/>
<defs>
<filter id="filter0_b_78_18" x="-18" y="118" width="936" height="172.457" filterUnits="userSpaceOnUse" color-interpolation-filters="sRGB">
<feFlood flood-opacity="0" result="BackgroundImageFix"/>
<feGaussianBlur in="BackgroundImageFix" stdDeviation="9"/>
<feComposite in2="SourceAlpha" operator="in" result="effect1_backgroundBlur_78_18"/>
<feBlend mode="normal" in="SourceGraphic" in2="effect1_backgroundBlur_78_18" result="shape"/>
</filter>
<filter id="filter1_b_78_18" x="-34" y="-34" width="968" height="204.457" filterUnits="userSpaceOnUse" color-interpolation-filters="sRGB">
<feFlood flood-opacity="0" result="BackgroundImageFix"/>
<feGaussianBlur in="BackgroundImageFix" stdDeviation="17"/>
<feComposite in2="SourceAlpha" operator="in" result="effect1_backgroundBlur_78_18"/>
<feBlend mode="normal" in="SourceGraphic" in2="effect1_backgroundBlur_78_18" result="shape"/>
</filter>
</defs>
</svg>
