<svg width="96" height="96" viewBox="0 0 96 96" fill="none" xmlns="http://www.w3.org/2000/svg">
<path d="M68.6106 60.3774H64.2744L62.7376 58.8954C68.1166 52.6381 71.3551 44.5146 71.3551 35.6775C71.3551 15.9726 55.3825 0 35.6775 0C15.9726 0 0 15.9726 0 35.6775C0 55.3825 15.9726 71.3551 35.6775 71.3551C44.5146 71.3551 52.6381 68.1166 58.8954 62.7376L60.3774 64.2744V68.6106L87.8216 96L96 87.8216L68.6106 60.3774ZM35.6775 60.3774C22.0103 60.3774 10.9777 49.3448 10.9777 35.6775C10.9777 22.0103 22.0103 10.9777 35.6775 10.9777C49.3448 10.9777 60.3774 22.0103 60.3774 35.6775C60.3774 49.3448 49.3448 60.3774 35.6775 60.3774Z" fill="#5523DE"/>
</svg>
